<svg aria-hidden="true" style="position: absolute; width: 0; height: 0; overflow: hidden;" version="1.1" xmlns="http://www.w3.org/2000/svg" xmlns:xlink="http://www.w3.org/1999/xlink">
<defs>
<symbol id="icon-youtube" viewBox="0 0 31 32">
<path d="M15.672 5.76c0.684 0.004 2.394 0.020 4.211 0.093l0.644 0.028c1.83 0.087 3.658 0.235 4.565 0.487 1.209 0.34 2.16 1.331 2.481 2.588 0.512 1.996 0.576 5.891 0.584 6.833l0.001 0.195v0.014c0 0 0 0.005 0 0.014l-0.001 0.195c-0.008 0.943-0.072 4.838-0.584 6.833-0.326 1.261-1.276 2.253-2.481 2.588-0.907 0.253-2.735 0.401-4.565 0.487l-0.644 0.028c-1.817 0.073-3.528 0.089-4.211 0.093l-0.313 0.001c0 0-0.004 0-0.013 0l-0.3-0.001c-1.447-0.008-7.497-0.073-9.421-0.609-1.21-0.34-2.16-1.331-2.481-2.588-0.512-1.996-0.576-5.891-0.583-6.833v-0.418c0.008-0.943 0.072-4.838 0.583-6.833 0.326-1.261 1.276-2.253 2.481-2.588 1.924-0.535 7.974-0.601 9.421-0.609h0.626zM12.799 11.519v8.96l7.68-4.48-7.68-4.48z"></path>
</symbol>
<symbol id="icon-instagram" viewBox="0 0 31 32">
<path d="M16.676 3.201c1.441 0.002 2.171 0.010 2.801 0.029l0.248 0.008c0.287 0.010 0.57 0.023 0.912 0.039 1.362 0.063 2.291 0.278 3.107 0.595 0.844 0.325 1.556 0.765 2.268 1.476 0.71 0.711 1.15 1.426 1.476 2.268 0.316 0.815 0.531 1.745 0.595 3.107 0.015 0.341 0.028 0.624 0.038 0.912l0.008 0.248c0.019 0.631 0.027 1.361 0.030 2.801l0.001 0.954c0 0.117 0 0.237 0 0.361l-0 0.361-0.001 0.954c-0.002 1.441-0.010 2.171-0.029 2.801l-0.008 0.248c-0.010 0.287-0.023 0.57-0.039 0.912-0.063 1.362-0.28 2.291-0.595 3.107-0.325 0.844-0.766 1.556-1.476 2.268-0.711 0.71-1.427 1.15-2.268 1.476-0.816 0.316-1.745 0.531-3.107 0.595-0.341 0.015-0.625 0.028-0.912 0.038l-0.248 0.008c-0.631 0.019-1.361 0.027-2.801 0.030l-0.954 0.001c-0.117 0-0.237 0-0.361 0l-1.316-0.001c-1.441-0.002-2.171-0.010-2.801-0.029l-0.248-0.008c-0.287-0.010-0.57-0.023-0.912-0.039-1.362-0.063-2.29-0.279-3.107-0.595-0.843-0.325-1.556-0.766-2.268-1.476-0.711-0.711-1.15-1.427-1.476-2.268-0.317-0.816-0.531-1.745-0.595-3.107-0.015-0.341-0.028-0.624-0.038-0.912l-0.008-0.248c-0.019-0.631-0.027-1.361-0.030-2.801l-0-2.631c0.002-1.441 0.010-2.171 0.029-2.801l0.008-0.248c0.010-0.287 0.023-0.57 0.039-0.912 0.063-1.363 0.278-2.291 0.595-3.107 0.325-0.843 0.765-1.556 1.476-2.268s1.426-1.15 2.268-1.476c0.816-0.317 1.744-0.531 3.107-0.595 0.341-0.015 0.624-0.028 0.912-0.038l0.248-0.008c0.631-0.019 1.361-0.027 2.801-0.030l2.631-0zM15.36 9.6c-3.537 0-6.4 2.867-6.4 6.4 0 3.537 2.867 6.4 6.4 6.4 3.537 0 6.4-2.867 6.4-6.4 0-3.537-2.867-6.4-6.4-6.4zM15.36 12.16c2.121 0 3.84 1.719 3.84 3.84s-1.719 3.84-3.84 3.84c-2.121 0-3.84-1.719-3.84-3.84s1.719-3.84 3.84-3.84zM22.080 7.68c-0.882 0-1.6 0.717-1.6 1.599s0.717 1.6 1.6 1.6c0.882 0 1.6-0.717 1.6-1.6 0-0.882-0.719-1.6-1.6-1.599z"></path>
</symbol>
<symbol id="icon-facebook" viewBox="0 0 31 32">
<path  d="M19.715 27.52v-8.916h2.985l0.447-3.466h-3.432v-2.213c0-1.003 0.279-1.687 1.718-1.687l1.836-0.001v-3.1c-0.318-0.042-1.407-0.137-2.675-0.137-2.646 0-4.458 1.615-4.458 4.582v2.556h-2.993v3.466h2.993v8.916h-11.016c-0.707 0-1.28-0.573-1.28-1.28v-20.48c0-0.707 0.573-1.28 1.28-1.28h20.48c0.707 0 1.28 0.573 1.28 1.28v20.48c0 0.707-0.573 1.28-1.28 1.28h-5.885z"></path>
</symbol>
<symbol id="icon-tiktok" viewBox="0 0 31 32">
<path  d="M21.248 8.090c-0.875-0.999-1.357-2.282-1.357-3.61h-3.955v15.872c-0.030 0.859-0.393 1.672-1.011 2.269s-1.444 0.931-2.304 0.931c-1.818 0-3.328-1.485-3.328-3.328 0-2.202 2.125-3.853 4.314-3.174v-4.045c-4.416-0.589-8.282 2.842-8.282 7.219 0 4.262 3.533 7.296 7.283 7.296 4.019 0 7.283-3.264 7.283-7.296v-8.051c1.604 1.152 3.529 1.77 5.504 1.766v-3.955c0 0-2.406 0.115-4.147-1.894z"></path>
</symbol>
<symbol id="icon-quick-bite" viewBox="0 0 32 32">
<path d="M15.479 2.933c0.137-0.005 0.273 0.019 0.4 0.069s0.243 0.126 0.34 0.223l1.885 1.885c1.938 1.938 3.026 4.566 3.026 7.307s-1.089 5.369-3.026 7.307l-0.943 0.943c-4.043 4.043-10.639 3.975-14.667-0.053-0.42-0.419-0.665-0.982-0.686-1.574s0.183-1.171 0.572-1.619l12.377-14.147c0.090-0.103 0.201-0.186 0.325-0.245s0.258-0.091 0.395-0.095zM15.56 5.395l-11.673 13.343c-0.054 0.066-0.082 0.15-0.078 0.235s0.040 0.166 0.101 0.226c3.261 3.263 8.591 3.301 11.839 0.053l0.943-0.941c0.774-0.774 1.388-1.693 1.807-2.704s0.635-2.095 0.635-3.19-0.216-2.178-0.635-3.19c-0.419-1.011-1.033-1.93-1.807-2.704l-1.131-1.129z"></path>
<path d="M20.571 12.844c1.449-0.188 2.921-0.041 4.304 0.429s2.64 1.251 3.674 2.283l0.871 0.871c0.096 0.097 0.172 0.212 0.222 0.339s0.074 0.263 0.070 0.399c-0.004 0.136-0.036 0.27-0.094 0.394s-0.141 0.234-0.243 0.324l-14.091 12.456c-0.44 0.389-1.012 0.595-1.599 0.577s-1.145-0.259-1.561-0.673c-1.1-1.099-1.677-2.208-1.904-3.435-0.219-1.177-0.099-2.403 0.061-3.673 0.014-0.132 0.054-0.26 0.118-0.377s0.151-0.219 0.255-0.302c0.104-0.083 0.224-0.144 0.352-0.179s0.262-0.046 0.394-0.029c0.132 0.017 0.259 0.059 0.375 0.126s0.216 0.155 0.297 0.261c0.081 0.106 0.139 0.227 0.172 0.355s0.041 0.263 0.021 0.394c-0.161 1.281-0.235 2.223-0.080 3.060 0.147 0.787 0.508 1.54 1.352 2.384 0.115 0.116 0.3 0.12 0.423 0.013l13.293-11.753-0.119-0.117c-0.818-0.816-1.813-1.434-2.907-1.806s-2.26-0.487-3.406-0.337c-0.132 0.019-0.266 0.012-0.394-0.021s-0.25-0.092-0.355-0.172c-0.106-0.081-0.195-0.181-0.261-0.297s-0.109-0.243-0.126-0.374c-0.017-0.132-0.007-0.266 0.029-0.394s0.097-0.248 0.179-0.352c0.083-0.104 0.185-0.191 0.302-0.255s0.245-0.104 0.377-0.118z"></path>
<path d="M2.663 19.368c0.188-0.187 0.442-0.292 0.707-0.292s0.519 0.105 0.707 0.292l9.259 9.259c0.098 0.092 0.177 0.202 0.232 0.325s0.084 0.255 0.086 0.389c0.002 0.134-0.022 0.268-0.073 0.392s-0.125 0.238-0.22 0.333-0.208 0.17-0.333 0.22c-0.124 0.050-0.258 0.075-0.392 0.073s-0.267-0.032-0.389-0.086c-0.123-0.055-0.233-0.133-0.325-0.232l-9.259-9.257c-0.187-0.188-0.292-0.442-0.292-0.707s0.105-0.519 0.292-0.707v-0.001zM22.284 1.953c1.177-0.543 2.491-0.713 3.767-0.485s2.451 0.841 3.368 1.757 1.53 2.092 1.757 3.368c0.227 1.276 0.058 2.591-0.485 3.767 0.678 1.087 0.968 2.371 0.823 3.644s-0.717 2.458-1.623 3.364c-0.188 0.182-0.441 0.283-0.703 0.281s-0.513-0.107-0.699-0.292c-0.185-0.185-0.291-0.436-0.293-0.698s0.098-0.515 0.28-0.704c0.639-0.639 1.020-1.491 1.069-2.394s-0.237-1.791-0.802-2.496c-0.128-0.159-0.205-0.354-0.219-0.557s0.034-0.407 0.139-0.583c0.493-0.829 0.696-1.798 0.576-2.755s-0.554-1.846-1.236-2.528c-0.682-0.682-1.571-1.117-2.528-1.237s-1.926 0.083-2.755 0.576c-0.176 0.105-0.379 0.154-0.583 0.139s-0.399-0.091-0.558-0.219c-0.704-0.566-1.593-0.851-2.495-0.802s-1.754 0.43-2.393 1.069c-0.19 0.177-0.44 0.273-0.699 0.268s-0.506-0.11-0.689-0.293-0.288-0.43-0.293-0.689c-0.005-0.259 0.092-0.51 0.268-0.699 0.906-0.905 2.091-1.478 3.364-1.623s2.556 0.144 3.643 0.822z"></path>
<path d="M26.883 10.533c0-0.265-0.105-0.52-0.293-0.707s-0.442-0.293-0.707-0.293h-1.885c-0.265 0-0.52 0.105-0.707 0.293s-0.293 0.442-0.293 0.707c0 0.265 0.105 0.52 0.293 0.707s0.442 0.293 0.707 0.293h1.885c0.265 0 0.52-0.105 0.707-0.293s0.293-0.442 0.293-0.707zM21.112 6.761c0 0.553 0.448 1 1 1h1.885c0.265 0 0.52-0.105 0.707-0.293s0.293-0.442 0.293-0.707-0.105-0.52-0.293-0.707c-0.188-0.188-0.442-0.293-0.707-0.293h-1.885c-0.265 0-0.52 0.105-0.707 0.293s-0.293 0.442-0.293 0.707z"></path>
</symbol>
<symbol id="icon-dessert" viewBox="0 0 32 32">
<path d="M4.333 28c0-0.796 0.316-1.559 0.879-2.121s1.326-0.879 2.121-0.879h17.333c0.796 0 1.559 0.316 2.121 0.879s0.879 1.326 0.879 2.121-0.316 1.559-0.879 2.121c-0.563 0.563-1.326 0.879-2.121 0.879h-17.333c-0.796 0-1.559-0.316-2.121-0.879s-0.879-1.326-0.879-2.121zM7.333 27c-0.265 0-0.52 0.105-0.707 0.293s-0.293 0.442-0.293 0.707c0 0.265 0.105 0.52 0.293 0.707s0.442 0.293 0.707 0.293h17.333c0.265 0 0.52-0.105 0.707-0.293s0.293-0.442 0.293-0.707c0-0.265-0.105-0.52-0.293-0.707s-0.442-0.293-0.707-0.293h-17.333z"></path>
<path d="M4.333 24c0-0.796 0.316-1.559 0.879-2.121s1.326-0.879 2.121-0.879h17.333c0.796 0 1.559 0.316 2.121 0.879s0.879 1.326 0.879 2.121-0.316 1.559-0.879 2.121c-0.563 0.563-1.326 0.879-2.121 0.879h-17.333c-0.796 0-1.559-0.316-2.121-0.879s-0.879-1.326-0.879-2.121zM7.333 23c-0.265 0-0.52 0.105-0.707 0.293s-0.293 0.442-0.293 0.707c0 0.265 0.105 0.52 0.293 0.707s0.442 0.293 0.707 0.293h17.333c0.265 0 0.52-0.105 0.707-0.293s0.293-0.442 0.293-0.707c0-0.265-0.105-0.52-0.293-0.707s-0.442-0.293-0.707-0.293h-17.333z"></path>
<path d="M4.333 20c0-0.796 0.316-1.559 0.879-2.121s1.326-0.879 2.121-0.879h17.333c0.796 0 1.559 0.316 2.121 0.879s0.879 1.326 0.879 2.121-0.316 1.559-0.879 2.121c-0.563 0.563-1.326 0.879-2.121 0.879h-17.333c-0.796 0-1.559-0.316-2.121-0.879s-0.879-1.326-0.879-2.121zM7.333 19c-0.265 0-0.52 0.105-0.707 0.293s-0.293 0.442-0.293 0.707c0 0.265 0.105 0.52 0.293 0.707s0.442 0.293 0.707 0.293h17.333c0.265 0 0.52-0.105 0.707-0.293s0.293-0.442 0.293-0.707c0-0.265-0.105-0.52-0.293-0.707s-0.442-0.293-0.707-0.293h-17.333z"></path>
<path d="M7.333 15c-0.265 0-0.52 0.105-0.707 0.293s-0.293 0.442-0.293 0.707c0 0.265 0.105 0.52 0.293 0.707s0.442 0.293 0.707 0.293h17.333c0.265 0 0.52-0.105 0.707-0.293s0.293-0.442 0.293-0.707c0-0.265-0.105-0.52-0.293-0.707s-0.442-0.293-0.707-0.293h-6.667c-0.265 0-0.52-0.105-0.707-0.293s-0.293-0.442-0.293-0.707c0-0.265 0.105-0.52 0.293-0.707s0.442-0.293 0.707-0.293h6.667c0.796 0 1.559 0.316 2.121 0.879s0.879 1.326 0.879 2.121-0.316 1.559-0.879 2.121c-0.563 0.563-1.326 0.879-2.121 0.879h-17.333c-0.796 0-1.559-0.316-2.121-0.879s-0.879-1.326-0.879-2.121 0.316-1.559 0.879-2.121c0.563-0.563 1.326-0.879 2.121-0.879h6.667c0.265 0 0.52 0.105 0.707 0.293s0.293 0.442 0.293 0.707-0.105 0.52-0.293 0.707c-0.188 0.188-0.442 0.293-0.707 0.293h-6.667z"></path>
<path d="M7.333 11c-0.265 0-0.52 0.105-0.707 0.293s-0.293 0.442-0.293 0.707c0 0.265 0.105 0.52 0.293 0.707s0.442 0.293 0.707 0.293h6.667c0.265 0 0.52 0.105 0.707 0.293s0.293 0.442 0.293 0.707-0.105 0.52-0.293 0.707c-0.188 0.188-0.442 0.293-0.707 0.293h-6.667c-0.796 0-1.559-0.316-2.121-0.879s-0.879-1.326-0.879-2.121 0.316-1.559 0.879-2.121c0.563-0.563 1.326-0.879 2.121-0.879h6.667c0.265 0 0.52 0.105 0.707 0.293s0.293 0.442 0.293 0.707-0.105 0.52-0.293 0.707c-0.188 0.188-0.442 0.293-0.707 0.293h-6.667zM17 10c0-0.265 0.105-0.52 0.293-0.707s0.442-0.293 0.707-0.293h6.667c0.796 0 1.559 0.316 2.121 0.879s0.879 1.326 0.879 2.121-0.316 1.559-0.879 2.121c-0.563 0.563-1.326 0.879-2.121 0.879h-6.667c-0.265 0-0.52-0.105-0.707-0.293s-0.293-0.442-0.293-0.707c0-0.265 0.105-0.52 0.293-0.707s0.442-0.293 0.707-0.293h6.667c0.265 0 0.52-0.105 0.707-0.293s0.293-0.442 0.293-0.707c0-0.265-0.105-0.52-0.293-0.707s-0.442-0.293-0.707-0.293h-6.667c-0.265 0-0.52-0.105-0.707-0.293s-0.293-0.442-0.293-0.707z"></path>
<path d="M7.333 7c-0.265 0-0.52 0.105-0.707 0.293s-0.293 0.442-0.293 0.707c0 0.265 0.105 0.52 0.293 0.707s0.442 0.293 0.707 0.293h6.667c0.265 0 0.52 0.105 0.707 0.293s0.293 0.442 0.293 0.707-0.105 0.52-0.293 0.707c-0.188 0.188-0.442 0.293-0.707 0.293h-6.667c-0.796 0-1.559-0.316-2.121-0.879s-0.879-1.326-0.879-2.121c0-0.796 0.316-1.559 0.879-2.121s1.326-0.879 2.121-0.879h6.667c0.265 0 0.52 0.105 0.707 0.293s0.293 0.442 0.293 0.707-0.105 0.52-0.293 0.707c-0.188 0.188-0.442 0.293-0.707 0.293h-6.667zM17 6c0-0.265 0.105-0.52 0.293-0.707s0.442-0.293 0.707-0.293h6.667c0.796 0 1.559 0.316 2.121 0.879s0.879 1.326 0.879 2.121c0 0.796-0.316 1.559-0.879 2.121s-1.326 0.879-2.121 0.879h-6.667c-0.265 0-0.52-0.105-0.707-0.293s-0.293-0.442-0.293-0.707c0-0.265 0.105-0.52 0.293-0.707s0.442-0.293 0.707-0.293h6.667c0.265 0 0.52-0.105 0.707-0.293s0.293-0.442 0.293-0.707c0-0.265-0.105-0.52-0.293-0.707s-0.442-0.293-0.707-0.293h-6.667c-0.265 0-0.52-0.105-0.707-0.293s-0.293-0.442-0.293-0.707z"></path>
<path d="M9.667 4c0-0.796 0.316-1.559 0.879-2.121s1.326-0.879 2.121-0.879h6.667c0.796 0 1.559 0.316 2.121 0.879s0.879 1.326 0.879 2.121-0.316 1.559-0.879 2.121c-0.563 0.563-1.326 0.879-2.121 0.879h-0.333v6.333c0 0.796-0.316 1.559-0.879 2.121s-1.326 0.879-2.121 0.879c-0.796 0-1.559-0.316-2.121-0.879s-0.879-1.326-0.879-2.121v-6.333h-0.333c-0.796 0-1.559-0.316-2.121-0.879s-0.879-1.326-0.879-2.121zM12.667 3c-0.265 0-0.52 0.105-0.707 0.293s-0.293 0.442-0.293 0.707 0.105 0.52 0.293 0.707c0.188 0.188 0.442 0.293 0.707 0.293h1.333c0.265 0 0.52 0.105 0.707 0.293s0.293 0.442 0.293 0.707v7.333c0 0.265 0.105 0.52 0.293 0.707s0.442 0.293 0.707 0.293 0.52-0.105 0.707-0.293c0.188-0.188 0.293-0.442 0.293-0.707v-7.333c0-0.265 0.105-0.52 0.293-0.707s0.442-0.293 0.707-0.293h1.333c0.265 0 0.52-0.105 0.707-0.293s0.293-0.442 0.293-0.707-0.105-0.52-0.293-0.707c-0.188-0.188-0.442-0.293-0.707-0.293h-6.667z"></path>
</symbol>
<symbol id="icon-dinner" viewBox="0 0 32 32">
<path d="M0.333 13.333c0-7.18 5.82-13 13-13h5.333c7.18 0 13 5.82 13 13 0 0.619-0.246 1.212-0.683 1.65s-1.031 0.683-1.65 0.683h-26.667c-0.619 0-1.212-0.246-1.65-0.683s-0.683-1.031-0.683-1.65zM13.333 2.333c-2.917 0-5.715 1.159-7.778 3.222s-3.222 4.861-3.222 7.778c0 0.184 0.149 0.333 0.333 0.333h26.667c0.088 0 0.173-0.035 0.236-0.098s0.098-0.147 0.098-0.236c0-1.444-0.285-2.875-0.837-4.21s-1.363-2.547-2.384-3.569-2.234-1.832-3.569-2.385c-1.335-0.553-2.765-0.837-4.21-0.837h-5.333zM0.333 26.667c0 1.326 0.527 2.598 1.464 3.536s2.209 1.464 3.536 1.464h21.333c1.326 0 2.598-0.527 3.536-1.464s1.464-2.209 1.464-3.536v-2.667c0-0.619-0.246-1.212-0.683-1.65s-1.031-0.683-1.65-0.683h-15.333c-0.265 0-0.52 0.105-0.707 0.293s-0.293 0.442-0.293 0.707c0 0.265 0.105 0.52 0.293 0.707s0.442 0.293 0.707 0.293h15.333c0.088 0 0.173 0.035 0.236 0.098s0.098 0.147 0.098 0.236v2.667c0 0.796-0.316 1.559-0.879 2.121s-1.326 0.879-2.121 0.879h-21.333c-0.796 0-1.559-0.316-2.121-0.879s-0.879-1.326-0.879-2.121v-2.667c0-0.088 0.035-0.173 0.098-0.236s0.147-0.098 0.236-0.098h5.333c0.265 0 0.52-0.105 0.707-0.293s0.293-0.442 0.293-0.707-0.105-0.52-0.293-0.707c-0.188-0.188-0.442-0.293-0.707-0.293h-5.333c-0.619 0-1.212 0.246-1.65 0.683s-0.683 1.031-0.683 1.65v2.667z"></path>
<path d="M0.333 16.667c0-0.796 0.316-1.559 0.879-2.121s1.326-0.879 2.121-0.879h25.333c0.796 0 1.559 0.316 2.121 0.879s0.879 1.326 0.879 2.121c0 0.796-0.316 1.559-0.879 2.121s-1.326 0.879-2.121 0.879h-25.333c-0.796 0-1.559-0.316-2.121-0.879s-0.879-1.326-0.879-2.121zM3.333 15.667c-0.265 0-0.52 0.105-0.707 0.293s-0.293 0.442-0.293 0.707c0 0.265 0.105 0.52 0.293 0.707s0.442 0.293 0.707 0.293h25.333c0.265 0 0.52-0.105 0.707-0.293s0.293-0.442 0.293-0.707c0-0.265-0.105-0.52-0.293-0.707s-0.442-0.293-0.707-0.293h-25.333z"></path>
<path d="M3.333 19.667c-0.265 0-0.52 0.105-0.707 0.293s-0.293 0.442-0.293 0.707c0 0.265 0.105 0.52 0.293 0.707s0.442 0.293 0.707 0.293h4.667c0.265 0 0.52 0.105 0.707 0.293s0.293 0.442 0.293 0.707v1.067c0 0.513 0.204 1.004 0.566 1.367s0.854 0.566 1.367 0.566c0.513 0 1.005-0.204 1.367-0.566s0.566-0.854 0.566-1.367v-1.067c0-0.265 0.105-0.52 0.293-0.707s0.442-0.293 0.707-0.293h14.8c0.265 0 0.52-0.105 0.707-0.293s0.293-0.442 0.293-0.707c0-0.265-0.105-0.52-0.293-0.707s-0.442-0.293-0.707-0.293h-25.333zM0.333 20.667c0-0.796 0.316-1.559 0.879-2.121s1.326-0.879 2.121-0.879h25.333c0.796 0 1.559 0.316 2.121 0.879s0.879 1.326 0.879 2.121c0 0.796-0.316 1.559-0.879 2.121s-1.326 0.879-2.121 0.879h-13.8v0.067c0 1.043-0.414 2.044-1.152 2.781s-1.738 1.152-2.781 1.152-2.044-0.414-2.781-1.152c-0.738-0.738-1.152-1.738-1.152-2.781v-0.067h-3.667c-0.796 0-1.559-0.316-2.121-0.879s-0.879-1.326-0.879-2.121zM10.040 7.293c0.187 0.188 0.292 0.442 0.292 0.707s-0.105 0.519-0.292 0.707l-1.333 1.333c-0.19 0.177-0.44 0.273-0.699 0.268s-0.506-0.11-0.689-0.293c-0.183-0.183-0.288-0.43-0.293-0.69s0.092-0.51 0.268-0.699l1.333-1.333c0.188-0.187 0.442-0.292 0.707-0.292s0.519 0.105 0.707 0.292zM16.707 7.293c0.187 0.188 0.292 0.442 0.292 0.707s-0.105 0.519-0.292 0.707l-1.333 1.333c-0.092 0.098-0.202 0.177-0.325 0.232s-0.255 0.084-0.389 0.086c-0.134 0.002-0.268-0.022-0.392-0.073s-0.238-0.125-0.333-0.22-0.17-0.208-0.22-0.333c-0.050-0.125-0.075-0.258-0.073-0.392s0.032-0.267 0.086-0.389c0.055-0.123 0.133-0.233 0.232-0.325l1.333-1.333c0.188-0.187 0.442-0.292 0.707-0.292s0.519 0.105 0.707 0.292zM23.373 7.293c0.187 0.188 0.292 0.442 0.292 0.707s-0.105 0.519-0.292 0.707l-1.333 1.333c-0.092 0.098-0.202 0.177-0.325 0.232s-0.255 0.084-0.389 0.086c-0.134 0.002-0.268-0.022-0.392-0.073s-0.238-0.125-0.333-0.22-0.17-0.208-0.22-0.333c-0.050-0.125-0.075-0.258-0.073-0.392s0.032-0.267 0.086-0.389c0.055-0.123 0.133-0.233 0.232-0.325l1.333-1.333c0.187-0.187 0.442-0.292 0.707-0.292s0.519 0.105 0.707 0.292z"></path>
</symbol>
<symbol id="icon-lunch" viewBox="0 0 32 32">
<path d="M7.117 6.127c-2.239 1.455-3.451 3.347-3.451 5.291 0 1.943 1.213 3.835 3.451 5.289 2.227 1.448 5.365 2.377 8.883 2.377s6.655-0.929 8.883-2.377c2.239-1.455 3.451-3.347 3.451-5.289 0-1.944-1.213-3.836-3.451-5.291-2.227-1.447-5.365-2.376-8.883-2.376s-6.655 0.928-8.883 2.376zM6.027 4.449c2.597-1.688 6.127-2.7 9.973-2.7s7.376 1.013 9.973 2.7c2.587 1.683 4.36 4.124 4.36 6.968 0 2.843-1.773 5.284-4.36 6.965-2.597 1.689-6.127 2.7-9.973 2.7s-7.376-1.011-9.973-2.699c-2.587-1.683-4.36-4.124-4.36-6.968 0-2.843 1.773-5.284 4.36-6.967z"></path>
<path d="M2.593 10.253c0.264-0.019 0.526 0.067 0.726 0.24s0.325 0.419 0.344 0.683l0.447 6.033c0.22 3.003 1.569 5.811 3.774 7.86s5.105 3.189 8.115 3.189c3.011 0 5.91-1.139 8.115-3.189s3.554-4.857 3.774-7.86l0.447-6.033c0.019-0.265 0.143-0.51 0.344-0.684s0.462-0.26 0.727-0.24c0.264 0.019 0.51 0.143 0.684 0.344s0.26 0.462 0.24 0.727l-0.447 6.035c-0.257 3.506-1.832 6.786-4.407 9.179s-5.961 3.724-9.477 3.724c-3.516 0-6.901-1.33-9.477-3.724s-4.15-5.672-4.407-9.179l-0.447-6.033c-0.010-0.131 0.007-0.263 0.048-0.387s0.107-0.24 0.192-0.339c0.086-0.099 0.19-0.181 0.308-0.24s0.245-0.094 0.376-0.104z"></path>
<path d="M9.333 7.667c-0.265 0-0.52 0.105-0.707 0.293s-0.293 0.442-0.293 0.707 0.105 0.52 0.293 0.707c0.188 0.188 0.442 0.293 0.707 0.293s0.52-0.105 0.707-0.293c0.188-0.188 0.293-0.442 0.293-0.707s-0.105-0.52-0.293-0.707c-0.188-0.188-0.442-0.293-0.707-0.293zM6.333 8.667c0-0.394 0.078-0.784 0.228-1.148s0.372-0.695 0.65-0.973c0.279-0.279 0.609-0.5 0.973-0.65s0.754-0.228 1.148-0.228c0.394 0 0.784 0.078 1.148 0.228s0.695 0.372 0.973 0.65c0.279 0.279 0.5 0.609 0.65 0.973s0.228 0.754 0.228 1.148c0 0.796-0.316 1.559-0.879 2.121s-1.326 0.879-2.121 0.879c-0.796 0-1.559-0.316-2.121-0.879s-0.879-1.326-0.879-2.121zM24.667 10.333c-0.265 0-0.52 0.105-0.707 0.293s-0.293 0.442-0.293 0.707c0 0.265 0.105 0.52 0.293 0.707s0.442 0.293 0.707 0.293c0.265 0 0.52-0.105 0.707-0.293s0.293-0.442 0.293-0.707c0-0.265-0.105-0.52-0.293-0.707s-0.442-0.293-0.707-0.293zM21.667 11.333c0-0.796 0.316-1.559 0.879-2.121s1.326-0.879 2.121-0.879c0.796 0 1.559 0.316 2.121 0.879s0.879 1.326 0.879 2.121c0 0.796-0.316 1.559-0.879 2.121s-1.326 0.879-2.121 0.879c-0.796 0-1.559-0.316-2.121-0.879s-0.879-1.326-0.879-2.121zM18.621 6.525c-0.432 0.144-0.949 0.487-1.396 1.035-0.447 0.547-0.679 1.123-0.732 1.576-0.055 0.467 0.083 0.657 0.153 0.716 0.072 0.057 0.285 0.153 0.731 0.005 0.433-0.143 0.951-0.485 1.397-1.033 0.447-0.547 0.679-1.124 0.732-1.577 0.055-0.467-0.083-0.656-0.153-0.715-0.072-0.057-0.285-0.153-0.732-0.007zM17.993 4.628c0.833-0.276 1.84-0.285 2.624 0.355s0.979 1.627 0.876 2.499c-0.104 0.885-0.519 1.809-1.168 2.607-0.651 0.796-1.472 1.388-2.319 1.668-0.833 0.276-1.84 0.285-2.624-0.355s-0.979-1.627-0.876-2.499c0.104-0.885 0.519-1.809 1.168-2.607 0.651-0.797 1.472-1.388 2.319-1.668zM12.631 11c0.165 0 0.327 0.041 0.472 0.118s0.269 0.19 0.36 0.327l2.667 4c0.1 0.151 0.158 0.326 0.167 0.506s-0.032 0.361-0.117 0.52c-0.085 0.16-0.212 0.293-0.368 0.386s-0.333 0.142-0.514 0.142h-5.333c-0.181 0-0.359-0.049-0.514-0.142s-0.282-0.226-0.368-0.386c-0.085-0.16-0.126-0.339-0.117-0.52s0.066-0.356 0.167-0.506l2.667-4c0.091-0.137 0.215-0.249 0.36-0.327s0.307-0.118 0.472-0.118zM11.832 15h1.596l-0.797-1.197-0.799 1.197zM18.631 13.667c0.265 0 0.52 0.105 0.707 0.293s0.293 0.442 0.293 0.707v2.667c0 0.265-0.105 0.52-0.293 0.707s-0.442 0.293-0.707 0.293-0.52-0.105-0.707-0.293c-0.188-0.188-0.293-0.442-0.293-0.707v-2.667c0-0.265 0.105-0.52 0.293-0.707s0.442-0.293 0.707-0.293zM21.297 13c0.265 0 0.52 0.105 0.707 0.293s0.293 0.442 0.293 0.707v2.667c0 0.265-0.105 0.52-0.293 0.707s-0.442 0.293-0.707 0.293c-0.265 0-0.52-0.105-0.707-0.293s-0.293-0.442-0.293-0.707v-2.667c0-0.265 0.105-0.52 0.293-0.707s0.442-0.293 0.707-0.293zM5.256 11.96c0.093-0.093 0.203-0.167 0.324-0.217s0.251-0.076 0.383-0.076c0.131 0 0.261 0.026 0.383 0.076s0.232 0.124 0.325 0.217l2 2c0.098 0.092 0.177 0.202 0.232 0.325s0.084 0.255 0.086 0.389c0.002 0.134-0.022 0.268-0.073 0.392s-0.125 0.238-0.22 0.333-0.208 0.17-0.333 0.22c-0.125 0.050-0.258 0.075-0.392 0.073s-0.267-0.032-0.389-0.086c-0.123-0.055-0.233-0.133-0.325-0.232l-2-2c-0.187-0.187-0.292-0.442-0.292-0.707s0.105-0.519 0.292-0.707h-0.001z"></path>
</symbol>
<symbol id="icon-breakfest" viewBox="0 0 32 32">
<path d="M16 3c-7.18 0-13 5.82-13 13s5.82 13 13 13c7.18 0 13-5.82 13-13s-5.82-13-13-13zM1 16c0-8.284 6.716-15 15-15s15 6.716 15 15c0 8.284-6.716 15-15 15s-15-6.716-15-15z"></path>
<path d="M2.333 3.333c0-0.265 0.105-0.52 0.293-0.707s0.442-0.293 0.707-0.293h6.667c0.265 0 0.52 0.105 0.707 0.293s0.293 0.442 0.293 0.707-0.105 0.52-0.293 0.707c-0.188 0.188-0.442 0.293-0.707 0.293h-5.667v5.667c0 0.265-0.105 0.52-0.293 0.707s-0.442 0.293-0.707 0.293c-0.265 0-0.52-0.105-0.707-0.293s-0.293-0.442-0.293-0.707v-6.667zM21 3.333c0-0.265 0.105-0.52 0.293-0.707s0.442-0.293 0.707-0.293h6.667c0.265 0 0.52 0.105 0.707 0.293s0.293 0.442 0.293 0.707v6.667c0 0.265-0.105 0.52-0.293 0.707s-0.442 0.293-0.707 0.293c-0.265 0-0.52-0.105-0.707-0.293s-0.293-0.442-0.293-0.707v-5.667h-5.667c-0.265 0-0.52-0.105-0.707-0.293s-0.293-0.442-0.293-0.707zM3.333 21c0.265 0 0.52 0.105 0.707 0.293s0.293 0.442 0.293 0.707v5.667h5c0.265 0 0.52 0.105 0.707 0.293s0.293 0.442 0.293 0.707c0 0.265-0.105 0.52-0.293 0.707s-0.442 0.293-0.707 0.293h-6c-0.265 0-0.52-0.105-0.707-0.293s-0.293-0.442-0.293-0.707v-6.667c0-0.265 0.105-0.52 0.293-0.707s0.442-0.293 0.707-0.293zM28.667 21c0.265 0 0.52 0.105 0.707 0.293s0.293 0.442 0.293 0.707v6.667c0 0.265-0.105 0.52-0.293 0.707s-0.442 0.293-0.707 0.293h-6.667c-0.265 0-0.52-0.105-0.707-0.293s-0.293-0.442-0.293-0.707c0-0.265 0.105-0.52 0.293-0.707s0.442-0.293 0.707-0.293h5.667v-5.667c0-0.265 0.105-0.52 0.293-0.707s0.442-0.293 0.707-0.293zM8.977 10.368c0.118-0.237 0.326-0.418 0.578-0.502s0.526-0.065 0.763 0.054l2.587 1.293c0.924 0.462 1.72 1.143 2.32 1.984l3.175 4.443c0.412 0.575 0.957 1.040 1.589 1.357l2.587 1.293c0.121 0.057 0.229 0.137 0.318 0.236s0.158 0.215 0.202 0.341c0.044 0.126 0.062 0.26 0.053 0.393s-0.044 0.263-0.104 0.383c-0.060 0.119-0.143 0.226-0.244 0.312s-0.219 0.152-0.346 0.193c-0.127 0.041-0.261 0.055-0.394 0.043s-0.262-0.051-0.38-0.113l-2.587-1.293c-0.924-0.462-1.721-1.142-2.321-1.983l-3.173-4.443c-0.411-0.575-0.957-1.041-1.589-1.357l-2.587-1.293c-0.237-0.119-0.417-0.327-0.501-0.578s-0.064-0.526 0.054-0.763zM13.691 7.539c0.059-0.118 0.14-0.222 0.239-0.308s0.215-0.152 0.339-0.193c0.125-0.041 0.256-0.058 0.387-0.049s0.259 0.045 0.376 0.104l2.381 1.191c1.078 0.538 1.98 1.373 2.6 2.407l1.229 2.051c0.424 0.707 1.040 1.277 1.777 1.647l2.383 1.191c0.228 0.124 0.398 0.331 0.476 0.578s0.056 0.515-0.060 0.747c-0.116 0.232-0.317 0.41-0.561 0.496s-0.513 0.074-0.748-0.033l-2.383-1.191c-1.078-0.539-1.98-1.373-2.6-2.407l-1.229-2.049c-0.424-0.707-1.040-1.278-1.777-1.647l-2.383-1.191c-0.118-0.059-0.222-0.14-0.308-0.239s-0.152-0.215-0.193-0.339c-0.042-0.125-0.058-0.256-0.049-0.387s0.045-0.259 0.104-0.377h-0.001zM6.149 15.081c0.119-0.237 0.327-0.417 0.578-0.501s0.526-0.064 0.763 0.054l2.383 1.191c1.077 0.539 1.978 1.374 2.597 2.407l1.231 2.051c0.424 0.707 1.040 1.277 1.777 1.645l2.383 1.192c0.122 0.056 0.232 0.136 0.323 0.235s0.16 0.215 0.205 0.342c0.045 0.127 0.064 0.261 0.055 0.395s-0.044 0.265-0.104 0.385c-0.060 0.12-0.144 0.227-0.246 0.314s-0.221 0.153-0.349 0.193c-0.128 0.040-0.263 0.054-0.397 0.041s-0.263-0.053-0.381-0.117l-2.383-1.191c-1.078-0.539-1.98-1.373-2.6-2.407l-1.229-2.051c-0.424-0.706-1.041-1.277-1.777-1.645l-2.383-1.192c-0.237-0.119-0.417-0.327-0.501-0.578s-0.064-0.526 0.054-0.763z"></path>
</symbol>
</defs>
</svg>
