<svg aria-hidden="true" style="position: absolute; width: 0; height: 0; overflow: hidden;" version="1.1" xmlns="http://www.w3.org/2000/svg" xmlns:xlink="http://www.w3.org/1999/xlink">
<defs>
<symbol id="icon-youtube" viewBox="0 0 31 32">
<path d="M15.672 5.76c0.684 0.004 2.394 0.020 4.211 0.093l0.644 0.028c1.83 0.087 3.658 0.235 4.565 0.487 1.209 0.34 2.16 1.331 2.481 2.588 0.512 1.996 0.576 5.891 0.584 6.833l0.001 0.195v0.014c0 0 0 0.005 0 0.014l-0.001 0.195c-0.008 0.943-0.072 4.838-0.584 6.833-0.326 1.261-1.276 2.253-2.481 2.588-0.907 0.253-2.735 0.401-4.565 0.487l-0.644 0.028c-1.817 0.073-3.528 0.089-4.211 0.093l-0.313 0.001c0 0-0.004 0-0.013 0l-0.3-0.001c-1.447-0.008-7.497-0.073-9.421-0.609-1.21-0.34-2.16-1.331-2.481-2.588-0.512-1.996-0.576-5.891-0.583-6.833v-0.418c0.008-0.943 0.072-4.838 0.583-6.833 0.326-1.261 1.276-2.253 2.481-2.588 1.924-0.535 7.974-0.601 9.421-0.609h0.626zM12.799 11.519v8.96l7.68-4.48-7.68-4.48z"></path>
</symbol>
<symbol id="icon-instagram" viewBox="0 0 31 32">
<path d="M16.676 3.201c1.441 0.002 2.171 0.010 2.801 0.029l0.248 0.008c0.287 0.010 0.57 0.023 0.912 0.039 1.362 0.063 2.291 0.278 3.107 0.595 0.844 0.325 1.556 0.765 2.268 1.476 0.71 0.711 1.15 1.426 1.476 2.268 0.316 0.815 0.531 1.745 0.595 3.107 0.015 0.341 0.028 0.624 0.038 0.912l0.008 0.248c0.019 0.631 0.027 1.361 0.030 2.801l0.001 0.954c0 0.117 0 0.237 0 0.361l-0 0.361-0.001 0.954c-0.002 1.441-0.010 2.171-0.029 2.801l-0.008 0.248c-0.010 0.287-0.023 0.57-0.039 0.912-0.063 1.362-0.28 2.291-0.595 3.107-0.325 0.844-0.766 1.556-1.476 2.268-0.711 0.71-1.427 1.15-2.268 1.476-0.816 0.316-1.745 0.531-3.107 0.595-0.341 0.015-0.625 0.028-0.912 0.038l-0.248 0.008c-0.631 0.019-1.361 0.027-2.801 0.030l-0.954 0.001c-0.117 0-0.237 0-0.361 0l-1.316-0.001c-1.441-0.002-2.171-0.010-2.801-0.029l-0.248-0.008c-0.287-0.010-0.57-0.023-0.912-0.039-1.362-0.063-2.29-0.279-3.107-0.595-0.843-0.325-1.556-0.766-2.268-1.476-0.711-0.711-1.15-1.427-1.476-2.268-0.317-0.816-0.531-1.745-0.595-3.107-0.015-0.341-0.028-0.624-0.038-0.912l-0.008-0.248c-0.019-0.631-0.027-1.361-0.030-2.801l-0-2.631c0.002-1.441 0.010-2.171 0.029-2.801l0.008-0.248c0.010-0.287 0.023-0.57 0.039-0.912 0.063-1.363 0.278-2.291 0.595-3.107 0.325-0.843 0.765-1.556 1.476-2.268s1.426-1.15 2.268-1.476c0.816-0.317 1.744-0.531 3.107-0.595 0.341-0.015 0.624-0.028 0.912-0.038l0.248-0.008c0.631-0.019 1.361-0.027 2.801-0.030l2.631-0zM15.36 9.6c-3.537 0-6.4 2.867-6.4 6.4 0 3.537 2.867 6.4 6.4 6.4 3.537 0 6.4-2.867 6.4-6.4 0-3.537-2.867-6.4-6.4-6.4zM15.36 12.16c2.121 0 3.84 1.719 3.84 3.84s-1.719 3.84-3.84 3.84c-2.121 0-3.84-1.719-3.84-3.84s1.719-3.84 3.84-3.84zM22.080 7.68c-0.882 0-1.6 0.717-1.6 1.599s0.717 1.6 1.6 1.6c0.882 0 1.6-0.717 1.6-1.6 0-0.882-0.719-1.6-1.6-1.599z"></path>
</symbol>
<symbol id="icon-facebook" viewBox="0 0 31 32">
<path  d="M19.715 27.52v-8.916h2.985l0.447-3.466h-3.432v-2.213c0-1.003 0.279-1.687 1.718-1.687l1.836-0.001v-3.1c-0.318-0.042-1.407-0.137-2.675-0.137-2.646 0-4.458 1.615-4.458 4.582v2.556h-2.993v3.466h2.993v8.916h-11.016c-0.707 0-1.28-0.573-1.28-1.28v-20.48c0-0.707 0.573-1.28 1.28-1.28h20.48c0.707 0 1.28 0.573 1.28 1.28v20.48c0 0.707-0.573 1.28-1.28 1.28h-5.885z"></path>
</symbol>
<symbol id="icon-tiktok" viewBox="0 0 31 32">
<path  d="M21.248 8.090c-0.875-0.999-1.357-2.282-1.357-3.61h-3.955v15.872c-0.030 0.859-0.393 1.672-1.011 2.269s-1.444 0.931-2.304 0.931c-1.818 0-3.328-1.485-3.328-3.328 0-2.202 2.125-3.853 4.314-3.174v-4.045c-4.416-0.589-8.282 2.842-8.282 7.219 0 4.262 3.533 7.296 7.283 7.296 4.019 0 7.283-3.264 7.283-7.296v-8.051c1.604 1.152 3.529 1.77 5.504 1.766v-3.955c0 0-2.406 0.115-4.147-1.894z"></path>
</symbol>
</defs>
</svg>
